# xmcd CD database file generated by OrangeCD 5.0
#
# Track frame offsets:
#	150
#	17360
#	34890
#	54209
#	68619
#	84321
#	100725
#	120687
#	137889
#	159774
#	182176
#	202490
#	221775
#	240067
#	257394
#	274323
#	292277
#
# Disc length: 4205 seconds
#
# Revision: 0
# Processed by: cddbd v1.4PL0 Copyright (c) Steve Scherf et al.
# Submitted via: OrangeCD 5.0
#
DISCID=ef106b11
DTITLE=张国荣 - 继续精选
DYEAR=1900
DGENRE=
TTITLE0=梦到内河
TTITLE1=路过蜻蜓
TTITLE2=左右手
TTITLE3=无心睡眠
TTITLE4=暴风一族
TTITLE5=倩女幽魂
TTITLE6=共同度过
TTITLE7=童年时
TTITLE8=滴汗
TTITLE9=想你
TTITLE10=风再起时
TTITLE11=当年情
TTITLE12=为你钟情
TTITLE13=Monica
TTITLE14=不羁的风
TTITLE15=少女心事
TTITLE16=风继续吹
EXTD=
EXTT0=
EXTT1=
EXTT2=
EXTT3=
EXTT4=
EXTT5=
EXTT6=
EXTT7=
EXTT8=
EXTT9=
EXTT10=
EXTT11=
EXTT12=
EXTT13=
EXTT14=
EXTT15=
EXTT16=
PLAYORDER=
